<svg enable-background="new 0 0 458.186 458.186" viewBox="0 0 458.186 458.186" xmlns="http://www.w3.org/2000/svg"><path d="m445.651 201.95c-1.485-9.308-10.235-15.649-19.543-14.164s-15.649 10.235-14.164 19.543c.016.102.033.203.051.304 17.38 102.311-51.47 199.339-153.781 216.719s-199.339-51.47-216.719-153.781 51.471-199.339 153.781-216.719c62.919-10.688 126.962 11.29 170.059 58.361l-75.605 25.19c-8.944 2.976-13.781 12.638-10.806 21.582.001.002.002.005.003.007 2.976 8.944 12.638 13.781 21.582 10.806.003-.001.005-.002.007-.002l102.4-34.133c6.972-2.322 11.675-8.847 11.674-16.196v-102.4c0-9.426-7.641-17.067-17.067-17.067s-17.067 7.641-17.067 17.067v62.344c-87.892-83.596-226.911-80.113-310.507 7.779s-80.114 226.911 7.779 310.508 226.911 80.114 310.508-7.779c47.669-50.12 68.943-119.767 57.415-187.969z"/></svg>