<svg height="272" viewBox="0 0 384 272" width="384" xmlns="http://www.w3.org/2000/svg"><g fill="#fff"><path d="m16 88h313.376l-28.688 28.688c-6.248 6.248-6.248 16.376 0 22.624 3.128 3.128 7.216 4.688 11.312 4.688s8.184-1.56 11.312-4.688l56-56c6.248-6.248 6.248-16.376 0-22.624l-56-56c-6.248-6.248-16.376-6.248-22.624 0s-6.248 16.376 0 22.624l28.688 28.688h-313.376c-8.832 0-16 7.168-16 16s7.168 16 16 16z"/><path d="m368 184h-313.376l28.688-28.688c6.248-6.248 6.248-16.376 0-22.624-6.24-6.248-16.384-6.248-22.624 0l-56 56c-6.248 6.248-6.248 16.376 0 22.624l56 56c3.12 3.128 7.216 4.688 11.312 4.688s8.192-1.56 11.312-4.688c6.248-6.248 6.248-16.376 0-22.624l-28.688-28.688h313.376c8.832 0 16-7.168 16-16s-7.168-16-16-16z"/></g></svg>
